<?xml version="1.0" encoding="utf-8"?>
<!-- Uploaded to: SVG Repo, www.svgrepo.com, Generator: SVG Repo Mixer Tools -->
<svg width="800px" height="800px" viewBox="0 -11 1046 1046" class="icon"  version="1.1" xmlns="http://www.w3.org/2000/svg"><path d="M138.888198 372.679092L501.50426 10.063029a34.700102 34.700102 0 0 1 48.927144 0l362.616062 362.616063a34.700102 34.700102 0 0 1 4.858014 43.722128L555.289418 1006.302948a34.700102 34.700102 0 0 1-59.337174 0L133.683183 416.40122A34.700102 34.700102 0 0 1 138.888198 372.679092z" fill="#5D9CEC" /><path d="M116.333132 293.215859h808.85937a34.700102 34.700102 0 0 1 23.249068 9.022026L1035.538825 381.701118a34.700102 34.700102 0 0 1 5.552016 43.375127L883.899381 694.002033a34.700102 34.700102 0 0 1-29.842088 17.00305H198.919374a34.700102 34.700102 0 0 1-29.495087-17.00305L4.945805 421.606235a34.700102 34.700102 0 0 1 6.246019-43.375127l81.545239-75.646222a34.700102 34.700102 0 0 1 23.596069-9.369027z" fill="#656D78" /><path d="M164.219272 395.234158h67.318197l24.290071 128.390376 34.700102-128.390376h67.318197l34.700102 128.390376 24.290071-128.390376H485.889215L434.880065 624.60183h-69.400203l-40.599119-144.352423L284.975626 624.60183h-69.400203zM511.56729 395.234158h69.400203V624.60183h-69.400203zM634.058649 395.234158h66.277194L786.739096 520.501525v-125.267367h66.971196V624.60183h-66.971196l-86.056252-125.961369V624.60183h-66.624195z" fill="#FFCE54" /></svg>